<mxfile host="app.diagrams.net" agent="Mozilla/5.0 (Windows NT 10.0; Win64; x64; rv:132.0) Gecko/20100101 Firefox/132.0" version="24.8.4" pages="4">
  <diagram name="Expansion" id="13e1069c-82ec-6db2-03f1-153e76fe0fe0">
    <mxGraphModel dx="1195" dy="645" grid="1" gridSize="10" guides="1" tooltips="1" connect="1" arrows="1" fold="1" page="1" pageScale="1" pageWidth="1100" pageHeight="850" background="none" math="0" shadow="0">
      <root>
        <mxCell id="0" />
        <mxCell id="1" parent="0" />
        <mxCell id="7baba1c4bc27f4b0-2" value="Joueur" style="shape=umlLifeline;perimeter=lifelinePerimeter;whiteSpace=wrap;html=1;container=1;collapsible=0;recursiveResize=0;outlineConnect=0;rounded=1;shadow=0;comic=0;labelBackgroundColor=none;strokeWidth=1;fontFamily=Verdana;fontSize=12;align=center;" parent="1" vertex="1">
          <mxGeometry x="240" y="80" width="100" height="580" as="geometry" />
        </mxCell>
        <mxCell id="7baba1c4bc27f4b0-10" value="" style="html=1;points=[];perimeter=orthogonalPerimeter;rounded=0;shadow=0;comic=0;labelBackgroundColor=none;strokeWidth=1;fontFamily=Verdana;fontSize=12;align=center;" parent="7baba1c4bc27f4b0-2" vertex="1">
          <mxGeometry x="45" y="100" width="10" height="360" as="geometry" />
        </mxCell>
        <mxCell id="7baba1c4bc27f4b0-3" value="CommandeExpansion" style="shape=umlLifeline;perimeter=lifelinePerimeter;whiteSpace=wrap;html=1;container=1;collapsible=0;recursiveResize=0;outlineConnect=0;rounded=1;shadow=0;comic=0;labelBackgroundColor=none;strokeWidth=1;fontFamily=Verdana;fontSize=12;align=center;" parent="1" vertex="1">
          <mxGeometry x="400" y="80" width="100" height="580" as="geometry" />
        </mxCell>
        <mxCell id="7baba1c4bc27f4b0-13" value="" style="html=1;points=[];perimeter=orthogonalPerimeter;rounded=0;shadow=0;comic=0;labelBackgroundColor=none;strokeWidth=1;fontFamily=Verdana;fontSize=12;align=center;" parent="7baba1c4bc27f4b0-3" vertex="1">
          <mxGeometry x="45" y="120" width="10" height="200" as="geometry" />
        </mxCell>
        <mxCell id="VWgcsKf3dtUbkFCGwrCM-6" value="" style="endArrow=classic;html=1;rounded=0;entryX=0.8;entryY=0.755;entryDx=0;entryDy=0;entryPerimeter=0;" parent="7baba1c4bc27f4b0-3" target="7baba1c4bc27f4b0-13" edge="1">
          <mxGeometry width="50" height="50" relative="1" as="geometry">
            <mxPoint x="185" y="270" as="sourcePoint" />
            <mxPoint x="60" y="270" as="targetPoint" />
          </mxGeometry>
        </mxCell>
        <mxCell id="7baba1c4bc27f4b0-4" value="Plateau" style="shape=umlLifeline;perimeter=lifelinePerimeter;whiteSpace=wrap;html=1;container=1;collapsible=0;recursiveResize=0;outlineConnect=0;rounded=1;shadow=0;comic=0;labelBackgroundColor=none;strokeWidth=1;fontFamily=Verdana;fontSize=12;align=center;" parent="1" vertex="1">
          <mxGeometry x="540" y="80" width="100" height="580" as="geometry" />
        </mxCell>
        <mxCell id="7baba1c4bc27f4b0-17" value="vérifierDisponibilité()" style="html=1;verticalAlign=bottom;endArrow=block;labelBackgroundColor=none;fontFamily=Verdana;fontSize=12;edgeStyle=elbowEdgeStyle;elbow=vertical;" parent="7baba1c4bc27f4b0-4" edge="1">
          <mxGeometry relative="1" as="geometry">
            <mxPoint x="-85" y="229.5" as="sourcePoint" />
            <Array as="points">
              <mxPoint x="-80" y="229.5" />
            </Array>
            <mxPoint x="45" y="229.5" as="targetPoint" />
            <mxPoint as="offset" />
          </mxGeometry>
        </mxCell>
        <mxCell id="7baba1c4bc27f4b0-5" value="Vaisseau" style="shape=umlLifeline;perimeter=lifelinePerimeter;whiteSpace=wrap;html=1;container=1;collapsible=0;recursiveResize=0;outlineConnect=0;rounded=1;shadow=0;comic=0;labelBackgroundColor=none;strokeWidth=1;fontFamily=Verdana;fontSize=12;align=center;" parent="1" vertex="1">
          <mxGeometry x="680" y="80" width="100" height="580" as="geometry" />
        </mxCell>
        <mxCell id="7baba1c4bc27f4b0-6" value="Secteur" style="shape=umlLifeline;perimeter=lifelinePerimeter;whiteSpace=wrap;html=1;container=1;collapsible=0;recursiveResize=0;outlineConnect=0;rounded=1;shadow=0;comic=0;labelBackgroundColor=none;strokeWidth=1;fontFamily=Verdana;fontSize=12;align=center;" parent="1" vertex="1">
          <mxGeometry x="820" y="80" width="100" height="580" as="geometry" />
        </mxCell>
        <mxCell id="7baba1c4bc27f4b0-28" value="" style="html=1;points=[];perimeter=orthogonalPerimeter;rounded=0;shadow=0;comic=0;labelBackgroundColor=none;strokeWidth=1;fontFamily=Verdana;fontSize=12;align=center;" parent="7baba1c4bc27f4b0-6" vertex="1">
          <mxGeometry x="45" y="345" width="10" height="60" as="geometry" />
        </mxCell>
        <mxCell id="7baba1c4bc27f4b0-8" value="Jeu" style="shape=umlLifeline;perimeter=lifelinePerimeter;whiteSpace=wrap;html=1;container=1;collapsible=0;recursiveResize=0;outlineConnect=0;rounded=1;shadow=0;comic=0;labelBackgroundColor=none;strokeWidth=1;fontFamily=Verdana;fontSize=12;align=center;" parent="1" vertex="1">
          <mxGeometry x="100" y="80" width="105" height="580" as="geometry" />
        </mxCell>
        <mxCell id="7baba1c4bc27f4b0-9" value="" style="html=1;points=[];perimeter=orthogonalPerimeter;rounded=0;shadow=0;comic=0;labelBackgroundColor=none;strokeWidth=1;fontFamily=Verdana;fontSize=12;align=center;" parent="7baba1c4bc27f4b0-8" vertex="1">
          <mxGeometry x="45" y="90" width="10" height="440" as="geometry" />
        </mxCell>
        <mxCell id="eqXYOQSXSiLYzyDS0z7A-1" value="" style="endArrow=classic;html=1;rounded=0;entryX=1.015;entryY=0.024;entryDx=0;entryDy=0;entryPerimeter=0;" edge="1" parent="7baba1c4bc27f4b0-8" target="7baba1c4bc27f4b0-9">
          <mxGeometry width="50" height="50" relative="1" as="geometry">
            <mxPoint x="55" y="90" as="sourcePoint" />
            <mxPoint x="60" y="100" as="targetPoint" />
            <Array as="points">
              <mxPoint x="100" y="90" />
              <mxPoint x="100" y="100" />
            </Array>
          </mxGeometry>
        </mxCell>
        <mxCell id="Gi8kAt6BEdtY3PEOa9S--1" value="addPlayer()" style="text;html=1;align=center;verticalAlign=middle;whiteSpace=wrap;rounded=0;" vertex="1" parent="7baba1c4bc27f4b0-8">
          <mxGeometry x="55" y="60" width="60" height="30" as="geometry" />
        </mxCell>
        <mxCell id="7baba1c4bc27f4b0-16" value="" style="html=1;points=[];perimeter=orthogonalPerimeter;rounded=0;shadow=0;comic=0;labelBackgroundColor=none;strokeWidth=1;fontFamily=Verdana;fontSize=12;align=center;" parent="1" vertex="1">
          <mxGeometry x="585" y="310" width="10" height="90" as="geometry" />
        </mxCell>
        <mxCell id="7baba1c4bc27f4b0-19" value="" style="html=1;points=[];perimeter=orthogonalPerimeter;rounded=0;shadow=0;comic=0;labelBackgroundColor=none;strokeWidth=1;fontFamily=Verdana;fontSize=12;align=center;" parent="1" vertex="1">
          <mxGeometry x="725" y="420" width="10" height="40" as="geometry" />
        </mxCell>
        <mxCell id="7baba1c4bc27f4b0-23" value="finTour()" style="html=1;verticalAlign=bottom;endArrow=block;labelBackgroundColor=none;fontFamily=Verdana;fontSize=12;entryX=-0.2;entryY=0.861;entryDx=0;entryDy=0;entryPerimeter=0;" parent="1" target="7baba1c4bc27f4b0-10" edge="1">
          <mxGeometry relative="1" as="geometry">
            <mxPoint x="155" y="490.0000000000001" as="sourcePoint" />
            <mxPoint x="280" y="490" as="targetPoint" />
          </mxGeometry>
        </mxCell>
        <mxCell id="7baba1c4bc27f4b0-14" value="sélectionnerCommande()" style="html=1;verticalAlign=bottom;endArrow=block;entryX=0;entryY=0;labelBackgroundColor=none;fontFamily=Verdana;fontSize=12;edgeStyle=elbowEdgeStyle;elbow=vertical;" parent="1" source="7baba1c4bc27f4b0-10" target="7baba1c4bc27f4b0-13" edge="1">
          <mxGeometry relative="1" as="geometry">
            <mxPoint x="370" y="200" as="sourcePoint" />
          </mxGeometry>
        </mxCell>
        <mxCell id="7baba1c4bc27f4b0-40" value="CommandeExpansion" style="shape=note;whiteSpace=wrap;html=1;size=14;verticalAlign=top;align=left;spacingTop=-6;rounded=0;shadow=0;comic=0;labelBackgroundColor=none;strokeWidth=1;fontFamily=Verdana;fontSize=12" parent="1" vertex="1">
          <mxGeometry x="100" y="30" width="100" height="35" as="geometry" />
        </mxCell>
        <mxCell id="VWgcsKf3dtUbkFCGwrCM-1" value="executer()" style="html=1;verticalAlign=bottom;endArrow=block;entryX=0;entryY=0;labelBackgroundColor=none;fontFamily=Verdana;fontSize=12;edgeStyle=elbowEdgeStyle;elbow=vertical;" parent="1" edge="1">
          <mxGeometry relative="1" as="geometry">
            <mxPoint x="295" y="243" as="sourcePoint" />
            <mxPoint x="445" y="243" as="targetPoint" />
          </mxGeometry>
        </mxCell>
        <mxCell id="VWgcsKf3dtUbkFCGwrCM-2" value="" style="endArrow=classic;html=1;rounded=0;" parent="1" edge="1">
          <mxGeometry width="50" height="50" relative="1" as="geometry">
            <mxPoint x="445.5" y="288" as="sourcePoint" />
            <mxPoint x="296" y="288" as="targetPoint" />
          </mxGeometry>
        </mxCell>
        <mxCell id="VWgcsKf3dtUbkFCGwrCM-3" value="&lt;span style=&quot;color: rgb(0, 0, 0); font-family: Verdana; font-size: 12px; font-style: normal; font-variant-ligatures: normal; font-variant-caps: normal; font-weight: 400; letter-spacing: normal; orphans: 2; text-align: center; text-indent: 0px; text-transform: none; widows: 2; word-spacing: 0px; -webkit-text-stroke-width: 0px; white-space: nowrap; background-color: rgb(251, 251, 251); text-decoration-thickness: initial; text-decoration-style: initial; text-decoration-color: initial; display: inline !important; float: none;&quot;&gt;getSecteurCible()&lt;/span&gt;" style="text;whiteSpace=wrap;html=1;" parent="1" vertex="1">
          <mxGeometry x="322" y="265" width="100" height="40" as="geometry" />
        </mxCell>
        <mxCell id="VWgcsKf3dtUbkFCGwrCM-8" value="&lt;span style=&quot;color: rgb(0, 0, 0); font-family: Verdana; font-size: 12px; font-style: normal; font-variant-ligatures: normal; font-variant-caps: normal; font-weight: 400; letter-spacing: normal; orphans: 2; text-align: center; text-indent: 0px; text-transform: none; widows: 2; word-spacing: 0px; -webkit-text-stroke-width: 0px; white-space: nowrap; background-color: rgb(251, 251, 251); text-decoration-thickness: initial; text-decoration-style: initial; text-decoration-color: initial; display: inline !important; float: none;&quot;&gt;retourDisponibilité()&lt;/span&gt;" style="text;whiteSpace=wrap;html=1;" parent="1" vertex="1">
          <mxGeometry x="458" y="326" width="160" height="40" as="geometry" />
        </mxCell>
        <mxCell id="VWgcsKf3dtUbkFCGwrCM-10" value="" style="endArrow=classic;html=1;rounded=0;" parent="1" edge="1">
          <mxGeometry width="50" height="50" relative="1" as="geometry">
            <mxPoint x="445.5" y="378" as="sourcePoint" />
            <mxPoint x="296" y="378" as="targetPoint" />
          </mxGeometry>
        </mxCell>
        <mxCell id="VWgcsKf3dtUbkFCGwrCM-11" value="&lt;span style=&quot;color: rgb(0, 0, 0); font-family: Verdana; font-size: 12px; font-style: normal; font-variant-ligatures: normal; font-variant-caps: normal; font-weight: 400; letter-spacing: normal; orphans: 2; text-align: center; text-indent: 0px; text-transform: none; widows: 2; word-spacing: 0px; -webkit-text-stroke-width: 0px; white-space: nowrap; background-color: rgb(251, 251, 251); text-decoration-thickness: initial; text-decoration-style: initial; text-decoration-color: initial; display: inline !important; float: none;&quot;&gt;placerVaisseau(secteur)&lt;/span&gt;" style="text;whiteSpace=wrap;html=1;" parent="1" vertex="1">
          <mxGeometry x="299" y="353" width="160" height="40" as="geometry" />
        </mxCell>
        <mxCell id="VWgcsKf3dtUbkFCGwrCM-14" value="" style="endArrow=classic;html=1;rounded=0;" parent="1" edge="1">
          <mxGeometry width="50" height="50" relative="1" as="geometry">
            <mxPoint x="736" y="441" as="sourcePoint" />
            <mxPoint x="865.5" y="441" as="targetPoint" />
          </mxGeometry>
        </mxCell>
        <mxCell id="VWgcsKf3dtUbkFCGwrCM-15" value="&lt;span style=&quot;color: rgb(0, 0, 0); font-family: Verdana; font-size: 12px; font-style: normal; font-variant-ligatures: normal; font-variant-caps: normal; font-weight: 400; letter-spacing: normal; orphans: 2; text-align: center; text-indent: 0px; text-transform: none; widows: 2; word-spacing: 0px; -webkit-text-stroke-width: 0px; white-space: nowrap; background-color: rgb(251, 251, 251); text-decoration-thickness: initial; text-decoration-style: initial; text-decoration-color: initial; display: inline !important; float: none;&quot;&gt;occuper(secteur, joueur)&lt;/span&gt;" style="text;whiteSpace=wrap;html=1;" parent="1" vertex="1">
          <mxGeometry x="742" y="415" width="170" height="40" as="geometry" />
        </mxCell>
        <mxCell id="7baba1c4bc27f4b0-20" value="deplacerVers(secteur)" style="html=1;verticalAlign=bottom;endArrow=block;labelBackgroundColor=none;fontFamily=Verdana;fontSize=12;edgeStyle=elbowEdgeStyle;elbow=vertical;exitX=1;exitY=0.686;exitDx=0;exitDy=0;exitPerimeter=0;" parent="1" source="7baba1c4bc27f4b0-10" target="7baba1c4bc27f4b0-5" edge="1">
          <mxGeometry x="0.0358" y="-3" relative="1" as="geometry">
            <mxPoint x="595" y="425" as="sourcePoint" />
            <mxPoint x="725" y="425" as="targetPoint" />
            <mxPoint as="offset" />
          </mxGeometry>
        </mxCell>
      </root>
    </mxGraphModel>
  </diagram>
  <diagram name="Exploration" id="DL81wotuPVP9I6vCO8lI">
    <mxGraphModel dx="1050" dy="558" grid="1" gridSize="10" guides="1" tooltips="1" connect="1" arrows="1" fold="1" page="1" pageScale="1" pageWidth="1100" pageHeight="850" background="none" math="0" shadow="0">
      <root>
        <mxCell id="rhuzTGTrT7Le7hbzART0-0" />
        <mxCell id="rhuzTGTrT7Le7hbzART0-1" parent="rhuzTGTrT7Le7hbzART0-0" />
        <mxCell id="rhuzTGTrT7Le7hbzART0-2" value="Joueur" style="shape=umlLifeline;perimeter=lifelinePerimeter;whiteSpace=wrap;html=1;container=1;collapsible=0;recursiveResize=0;outlineConnect=0;rounded=1;shadow=0;comic=0;labelBackgroundColor=none;strokeWidth=1;fontFamily=Verdana;fontSize=12;align=center;" parent="rhuzTGTrT7Le7hbzART0-1" vertex="1">
          <mxGeometry x="240" y="80" width="100" height="710" as="geometry" />
        </mxCell>
        <mxCell id="rhuzTGTrT7Le7hbzART0-3" value="" style="html=1;points=[];perimeter=orthogonalPerimeter;rounded=0;shadow=0;comic=0;labelBackgroundColor=none;strokeWidth=1;fontFamily=Verdana;fontSize=12;align=center;" parent="rhuzTGTrT7Le7hbzART0-2" vertex="1">
          <mxGeometry x="45" y="100" width="10" height="570" as="geometry" />
        </mxCell>
        <mxCell id="rhuzTGTrT7Le7hbzART0-4" value="CommandeExploration" style="shape=umlLifeline;perimeter=lifelinePerimeter;whiteSpace=wrap;html=1;container=1;collapsible=0;recursiveResize=0;outlineConnect=0;rounded=1;shadow=0;comic=0;labelBackgroundColor=none;strokeWidth=1;fontFamily=Verdana;fontSize=12;align=center;" parent="rhuzTGTrT7Le7hbzART0-1" vertex="1">
          <mxGeometry x="400" y="80" width="100" height="700" as="geometry" />
        </mxCell>
        <mxCell id="rhuzTGTrT7Le7hbzART0-5" value="" style="html=1;points=[];perimeter=orthogonalPerimeter;rounded=0;shadow=0;comic=0;labelBackgroundColor=none;strokeWidth=1;fontFamily=Verdana;fontSize=12;align=center;" parent="rhuzTGTrT7Le7hbzART0-4" vertex="1">
          <mxGeometry x="45" y="120" width="10" height="190" as="geometry" />
        </mxCell>
        <mxCell id="rhuzTGTrT7Le7hbzART0-7" value="Plateau" style="shape=umlLifeline;perimeter=lifelinePerimeter;whiteSpace=wrap;html=1;container=1;collapsible=0;recursiveResize=0;outlineConnect=0;rounded=1;shadow=0;comic=0;labelBackgroundColor=none;strokeWidth=1;fontFamily=Verdana;fontSize=12;align=center;" parent="rhuzTGTrT7Le7hbzART0-1" vertex="1">
          <mxGeometry x="540" y="80" width="100" height="700" as="geometry" />
        </mxCell>
        <mxCell id="rhuzTGTrT7Le7hbzART0-9" value="Vaisseau" style="shape=umlLifeline;perimeter=lifelinePerimeter;whiteSpace=wrap;html=1;container=1;collapsible=0;recursiveResize=0;outlineConnect=0;rounded=1;shadow=0;comic=0;labelBackgroundColor=none;strokeWidth=1;fontFamily=Verdana;fontSize=12;align=center;" parent="rhuzTGTrT7Le7hbzART0-1" vertex="1">
          <mxGeometry x="680" y="80" width="100" height="690" as="geometry" />
        </mxCell>
        <mxCell id="rhuzTGTrT7Le7hbzART0-11" value="Secteur" style="shape=umlLifeline;perimeter=lifelinePerimeter;whiteSpace=wrap;html=1;container=1;collapsible=0;recursiveResize=0;outlineConnect=0;rounded=1;shadow=0;comic=0;labelBackgroundColor=none;strokeWidth=1;fontFamily=Verdana;fontSize=12;align=center;" parent="rhuzTGTrT7Le7hbzART0-1" vertex="1">
          <mxGeometry x="820" y="80" width="100" height="690" as="geometry" />
        </mxCell>
        <mxCell id="rhuzTGTrT7Le7hbzART0-12" value="" style="html=1;points=[];perimeter=orthogonalPerimeter;rounded=0;shadow=0;comic=0;labelBackgroundColor=none;strokeWidth=1;fontFamily=Verdana;fontSize=12;align=center;" parent="rhuzTGTrT7Le7hbzART0-11" vertex="1">
          <mxGeometry x="45" y="270" width="10" height="30" as="geometry" />
        </mxCell>
        <mxCell id="yTwoDWNSlogbJeXiI8xF-1" value="vérifierDispo()" style="html=1;verticalAlign=bottom;endArrow=block;labelBackgroundColor=none;fontFamily=Verdana;fontSize=12;edgeStyle=elbowEdgeStyle;elbow=vertical;" parent="rhuzTGTrT7Le7hbzART0-11" edge="1">
          <mxGeometry relative="1" as="geometry">
            <mxPoint x="-360" y="273" as="sourcePoint" />
            <Array as="points" />
            <mxPoint x="45" y="273" as="targetPoint" />
            <mxPoint as="offset" />
          </mxGeometry>
        </mxCell>
        <mxCell id="rhuzTGTrT7Le7hbzART0-13" value="Jeu" style="shape=umlLifeline;perimeter=lifelinePerimeter;whiteSpace=wrap;html=1;container=1;collapsible=0;recursiveResize=0;outlineConnect=0;rounded=1;shadow=0;comic=0;labelBackgroundColor=none;strokeWidth=1;fontFamily=Verdana;fontSize=12;align=center;" parent="rhuzTGTrT7Le7hbzART0-1" vertex="1">
          <mxGeometry x="100" y="80" width="100" height="710" as="geometry" />
        </mxCell>
        <mxCell id="rhuzTGTrT7Le7hbzART0-14" value="" style="html=1;points=[];perimeter=orthogonalPerimeter;rounded=0;shadow=0;comic=0;labelBackgroundColor=none;strokeWidth=1;fontFamily=Verdana;fontSize=12;align=center;" parent="rhuzTGTrT7Le7hbzART0-13" vertex="1">
          <mxGeometry x="45" y="100" width="10" height="590" as="geometry" />
        </mxCell>
        <mxCell id="rhuzTGTrT7Le7hbzART0-17" value="finTour()" style="html=1;verticalAlign=bottom;endArrow=block;labelBackgroundColor=none;fontFamily=Verdana;fontSize=12;entryX=-0.3;entryY=0.983;entryDx=0;entryDy=0;entryPerimeter=0;" parent="rhuzTGTrT7Le7hbzART0-13" edge="1">
          <mxGeometry relative="1" as="geometry">
            <mxPoint x="55" y="650.03" as="sourcePoint" />
            <mxPoint x="182" y="650" as="targetPoint" />
          </mxGeometry>
        </mxCell>
        <mxCell id="rhuzTGTrT7Le7hbzART0-18" value="demarrerTour()" style="html=1;verticalAlign=bottom;endArrow=block;entryX=0;entryY=0;labelBackgroundColor=none;fontFamily=Verdana;fontSize=12;edgeStyle=elbowEdgeStyle;elbow=vertical;" parent="rhuzTGTrT7Le7hbzART0-1" source="rhuzTGTrT7Le7hbzART0-14" target="rhuzTGTrT7Le7hbzART0-3" edge="1">
          <mxGeometry relative="1" as="geometry">
            <mxPoint x="220" y="190" as="sourcePoint" />
          </mxGeometry>
        </mxCell>
        <mxCell id="rhuzTGTrT7Le7hbzART0-19" value="sélectionnerCommande()" style="html=1;verticalAlign=bottom;endArrow=block;entryX=0;entryY=0;labelBackgroundColor=none;fontFamily=Verdana;fontSize=12;edgeStyle=elbowEdgeStyle;elbow=vertical;" parent="rhuzTGTrT7Le7hbzART0-1" source="rhuzTGTrT7Le7hbzART0-3" target="rhuzTGTrT7Le7hbzART0-5" edge="1">
          <mxGeometry relative="1" as="geometry">
            <mxPoint x="370" y="200" as="sourcePoint" />
          </mxGeometry>
        </mxCell>
        <mxCell id="rhuzTGTrT7Le7hbzART0-20" value="CommandeExploration" style="shape=note;whiteSpace=wrap;html=1;size=14;verticalAlign=top;align=left;spacingTop=-6;rounded=0;shadow=0;comic=0;labelBackgroundColor=none;strokeWidth=1;fontFamily=Verdana;fontSize=12" parent="rhuzTGTrT7Le7hbzART0-1" vertex="1">
          <mxGeometry x="100" y="30" width="100" height="35" as="geometry" />
        </mxCell>
        <mxCell id="rhuzTGTrT7Le7hbzART0-26" value="executer()" style="html=1;verticalAlign=bottom;endArrow=block;entryX=0;entryY=0;labelBackgroundColor=none;fontFamily=Verdana;fontSize=12;edgeStyle=elbowEdgeStyle;elbow=vertical;" parent="rhuzTGTrT7Le7hbzART0-1" edge="1">
          <mxGeometry relative="1" as="geometry">
            <mxPoint x="295" y="243" as="sourcePoint" />
            <mxPoint x="445" y="243" as="targetPoint" />
          </mxGeometry>
        </mxCell>
        <mxCell id="rhuzTGTrT7Le7hbzART0-27" value="" style="endArrow=classic;html=1;rounded=0;" parent="rhuzTGTrT7Le7hbzART0-1" edge="1">
          <mxGeometry width="50" height="50" relative="1" as="geometry">
            <mxPoint x="445.5" y="288" as="sourcePoint" />
            <mxPoint x="296" y="288" as="targetPoint" />
          </mxGeometry>
        </mxCell>
        <mxCell id="rhuzTGTrT7Le7hbzART0-28" value="&lt;span style=&quot;color: rgb(0, 0, 0); font-family: Verdana; font-size: 12px; font-style: normal; font-variant-ligatures: normal; font-variant-caps: normal; font-weight: 400; letter-spacing: normal; orphans: 2; text-align: center; text-indent: 0px; text-transform: none; widows: 2; word-spacing: 0px; -webkit-text-stroke-width: 0px; white-space: nowrap; background-color: rgb(251, 251, 251); text-decoration-thickness: initial; text-decoration-style: initial; text-decoration-color: initial; display: inline !important; float: none;&quot;&gt;selectionnerVaisseauEtSecteur()&lt;/span&gt;" style="text;whiteSpace=wrap;html=1;" parent="rhuzTGTrT7Le7hbzART0-1" vertex="1">
          <mxGeometry x="314" y="265" width="198" height="40" as="geometry" />
        </mxCell>
        <mxCell id="rhuzTGTrT7Le7hbzART0-8" value="retourVaisseauEtSecteur()" style="html=1;verticalAlign=bottom;endArrow=block;labelBackgroundColor=none;fontFamily=Verdana;fontSize=12;edgeStyle=elbowEdgeStyle;elbow=vertical;" parent="rhuzTGTrT7Le7hbzART0-1" target="rhuzTGTrT7Le7hbzART0-4" edge="1">
          <mxGeometry relative="1" as="geometry">
            <mxPoint x="295" y="326" as="sourcePoint" />
            <Array as="points">
              <mxPoint x="300" y="326" />
            </Array>
            <mxPoint x="425" y="326" as="targetPoint" />
            <mxPoint as="offset" />
          </mxGeometry>
        </mxCell>
        <mxCell id="yTwoDWNSlogbJeXiI8xF-3" value="" style="swimlane;startSize=0;" parent="rhuzTGTrT7Le7hbzART0-1" vertex="1">
          <mxGeometry x="210" y="400" width="740" height="290" as="geometry" />
        </mxCell>
        <mxCell id="yTwoDWNSlogbJeXiI8xF-4" value="" style="rounded=0;whiteSpace=wrap;html=1;" parent="yTwoDWNSlogbJeXiI8xF-3" vertex="1">
          <mxGeometry width="60" height="30" as="geometry" />
        </mxCell>
        <mxCell id="yTwoDWNSlogbJeXiI8xF-5" value="Alt" style="text;html=1;align=center;verticalAlign=middle;whiteSpace=wrap;rounded=0;" parent="yTwoDWNSlogbJeXiI8xF-3" vertex="1">
          <mxGeometry width="60" height="30" as="geometry" />
        </mxCell>
        <mxCell id="yTwoDWNSlogbJeXiI8xF-6" value="[secteur disponible] (estOccupé == true)" style="text;html=1;align=center;verticalAlign=middle;whiteSpace=wrap;rounded=0;" parent="yTwoDWNSlogbJeXiI8xF-3" vertex="1">
          <mxGeometry x="225" width="230" height="30" as="geometry" />
        </mxCell>
        <mxCell id="rhuzTGTrT7Le7hbzART0-16" value="" style="html=1;points=[];perimeter=orthogonalPerimeter;rounded=0;shadow=0;comic=0;labelBackgroundColor=none;strokeWidth=1;fontFamily=Verdana;fontSize=12;align=center;" parent="yTwoDWNSlogbJeXiI8xF-3" vertex="1">
          <mxGeometry x="515" y="30" width="10" height="90" as="geometry" />
        </mxCell>
        <mxCell id="rhuzTGTrT7Le7hbzART0-33" value="&lt;span style=&quot;color: rgb(0, 0, 0); font-family: Verdana; font-size: 12px; font-style: normal; font-variant-ligatures: normal; font-variant-caps: normal; font-weight: 400; letter-spacing: normal; orphans: 2; text-align: center; text-indent: 0px; text-transform: none; widows: 2; word-spacing: 0px; -webkit-text-stroke-width: 0px; white-space: nowrap; background-color: rgb(251, 251, 251); text-decoration-thickness: initial; text-decoration-style: initial; text-decoration-color: initial; display: inline !important; float: none;&quot;&gt;déplacerVers(secteur)&lt;/span&gt;" style="text;whiteSpace=wrap;html=1;" parent="yTwoDWNSlogbJeXiI8xF-3" vertex="1">
          <mxGeometry x="292" y="35" width="170" height="40" as="geometry" />
        </mxCell>
        <mxCell id="rhuzTGTrT7Le7hbzART0-32" value="" style="endArrow=classic;html=1;rounded=0;entryX=0;entryY=0.322;entryDx=0;entryDy=0;entryPerimeter=0;" parent="yTwoDWNSlogbJeXiI8xF-3" target="rhuzTGTrT7Le7hbzART0-16" edge="1">
          <mxGeometry width="50" height="50" relative="1" as="geometry">
            <mxPoint x="245" y="60" as="sourcePoint" />
            <mxPoint x="374.5" y="60" as="targetPoint" />
          </mxGeometry>
        </mxCell>
        <mxCell id="yTwoDWNSlogbJeXiI8xF-7" value="" style="html=1;points=[];perimeter=orthogonalPerimeter;rounded=0;shadow=0;comic=0;labelBackgroundColor=none;strokeWidth=1;fontFamily=Verdana;fontSize=12;align=center;" parent="yTwoDWNSlogbJeXiI8xF-3" vertex="1">
          <mxGeometry x="235" y="40" width="10" height="90" as="geometry" />
        </mxCell>
        <mxCell id="yTwoDWNSlogbJeXiI8xF-9" value="" style="html=1;points=[];perimeter=orthogonalPerimeter;rounded=0;shadow=0;comic=0;labelBackgroundColor=none;strokeWidth=1;fontFamily=Verdana;fontSize=12;align=center;" parent="yTwoDWNSlogbJeXiI8xF-3" vertex="1">
          <mxGeometry x="655" y="60" width="10" height="30" as="geometry" />
        </mxCell>
        <mxCell id="yTwoDWNSlogbJeXiI8xF-11" value="" style="endArrow=classic;html=1;rounded=0;entryX=0;entryY=0.322;entryDx=0;entryDy=0;entryPerimeter=0;" parent="yTwoDWNSlogbJeXiI8xF-3" edge="1">
          <mxGeometry width="50" height="50" relative="1" as="geometry">
            <mxPoint x="530" y="75" as="sourcePoint" />
            <mxPoint x="655" y="75" as="targetPoint" />
          </mxGeometry>
        </mxCell>
        <mxCell id="yTwoDWNSlogbJeXiI8xF-12" value="&lt;span style=&quot;color: rgb(0, 0, 0); font-family: Verdana; font-size: 12px; font-style: normal; font-variant-ligatures: normal; font-variant-caps: normal; font-weight: 400; letter-spacing: normal; orphans: 2; text-align: center; text-indent: 0px; text-transform: none; widows: 2; word-spacing: 0px; -webkit-text-stroke-width: 0px; white-space: nowrap; background-color: rgb(251, 251, 251); text-decoration-thickness: initial; text-decoration-style: initial; text-decoration-color: initial; display: inline !important; float: none;&quot;&gt;occuper(secteur, joueur)&lt;/span&gt;" style="text;whiteSpace=wrap;html=1;" parent="yTwoDWNSlogbJeXiI8xF-3" vertex="1">
          <mxGeometry x="545" y="50" width="120" height="40" as="geometry" />
        </mxCell>
        <mxCell id="yTwoDWNSlogbJeXiI8xF-14" value="[secteur occupé] (estOccupé == false)" style="text;html=1;align=center;verticalAlign=middle;whiteSpace=wrap;rounded=0;" parent="yTwoDWNSlogbJeXiI8xF-3" vertex="1">
          <mxGeometry x="225" y="140" width="230" height="30" as="geometry" />
        </mxCell>
        <mxCell id="yTwoDWNSlogbJeXiI8xF-15" value="" style="html=1;points=[];perimeter=orthogonalPerimeter;rounded=0;shadow=0;comic=0;labelBackgroundColor=none;strokeWidth=1;fontFamily=Verdana;fontSize=12;align=center;" parent="yTwoDWNSlogbJeXiI8xF-3" vertex="1">
          <mxGeometry x="235" y="180" width="10" height="90" as="geometry" />
        </mxCell>
        <mxCell id="yTwoDWNSlogbJeXiI8xF-13" value="" style="endArrow=none;html=1;rounded=0;exitX=0;exitY=0.398;exitDx=0;exitDy=0;exitPerimeter=0;entryX=1.001;entryY=0.4;entryDx=0;entryDy=0;entryPerimeter=0;" parent="yTwoDWNSlogbJeXiI8xF-3" edge="1">
          <mxGeometry width="50" height="50" relative="1" as="geometry">
            <mxPoint y="139.9999999999999" as="sourcePoint" />
            <mxPoint x="740.7399999999998" y="140.65999999999997" as="targetPoint" />
          </mxGeometry>
        </mxCell>
        <mxCell id="yTwoDWNSlogbJeXiI8xF-16" value="&lt;span style=&quot;color: rgb(0, 0, 0); font-family: Verdana; font-size: 12px; font-style: normal; font-variant-ligatures: normal; font-variant-caps: normal; font-weight: 400; letter-spacing: normal; orphans: 2; text-align: center; text-indent: 0px; text-transform: none; widows: 2; word-spacing: 0px; -webkit-text-stroke-width: 0px; white-space: nowrap; background-color: rgb(251, 251, 251); text-decoration-thickness: initial; text-decoration-style: initial; text-decoration-color: initial; display: inline !important; float: none;&quot;&gt;informerSecteurOccupé()&lt;/span&gt;" style="text;whiteSpace=wrap;html=1;" parent="yTwoDWNSlogbJeXiI8xF-3" vertex="1">
          <mxGeometry x="85" y="190" width="160" height="40" as="geometry" />
        </mxCell>
        <mxCell id="yTwoDWNSlogbJeXiI8xF-17" value="" style="endArrow=classic;html=1;rounded=0;" parent="yTwoDWNSlogbJeXiI8xF-3" edge="1">
          <mxGeometry width="50" height="50" relative="1" as="geometry">
            <mxPoint x="240" y="215" as="sourcePoint" />
            <mxPoint x="85" y="215" as="targetPoint" />
          </mxGeometry>
        </mxCell>
        <mxCell id="yTwoDWNSlogbJeXiI8xF-18" value="selectionnerAutreSecteur()" style="html=1;verticalAlign=bottom;endArrow=block;labelBackgroundColor=none;fontFamily=Verdana;fontSize=12;edgeStyle=elbowEdgeStyle;elbow=vertical;" parent="yTwoDWNSlogbJeXiI8xF-3" edge="1">
          <mxGeometry relative="1" as="geometry">
            <mxPoint x="85" y="260" as="sourcePoint" />
            <Array as="points">
              <mxPoint x="90" y="260" />
            </Array>
            <mxPoint x="240" y="260" as="targetPoint" />
            <mxPoint as="offset" />
          </mxGeometry>
        </mxCell>
      </root>
    </mxGraphModel>
  </diagram>
  <diagram name="Extermination" id="RNkFft1NiPo5CD2q7cri">
    <mxGraphModel dx="1050" dy="558" grid="1" gridSize="10" guides="1" tooltips="1" connect="1" arrows="1" fold="1" page="1" pageScale="1" pageWidth="1100" pageHeight="850" background="none" math="0" shadow="0">
      <root>
        <mxCell id="S82zIa9q7b6sG49SLkV_-0" />
        <mxCell id="S82zIa9q7b6sG49SLkV_-1" parent="S82zIa9q7b6sG49SLkV_-0" />
        <mxCell id="S82zIa9q7b6sG49SLkV_-2" value="Joueur" style="shape=umlLifeline;perimeter=lifelinePerimeter;whiteSpace=wrap;html=1;container=1;collapsible=0;recursiveResize=0;outlineConnect=0;rounded=1;shadow=0;comic=0;labelBackgroundColor=none;strokeWidth=1;fontFamily=Verdana;fontSize=12;align=center;" parent="S82zIa9q7b6sG49SLkV_-1" vertex="1">
          <mxGeometry x="240" y="80" width="100" height="710" as="geometry" />
        </mxCell>
        <mxCell id="S82zIa9q7b6sG49SLkV_-3" value="" style="html=1;points=[];perimeter=orthogonalPerimeter;rounded=0;shadow=0;comic=0;labelBackgroundColor=none;strokeWidth=1;fontFamily=Verdana;fontSize=12;align=center;" parent="S82zIa9q7b6sG49SLkV_-2" vertex="1">
          <mxGeometry x="45" y="100" width="10" height="570" as="geometry" />
        </mxCell>
        <mxCell id="S82zIa9q7b6sG49SLkV_-4" value="CommandeExtermination" style="shape=umlLifeline;perimeter=lifelinePerimeter;whiteSpace=wrap;html=1;container=1;collapsible=0;recursiveResize=0;outlineConnect=0;rounded=1;shadow=0;comic=0;labelBackgroundColor=none;strokeWidth=1;fontFamily=Verdana;fontSize=12;align=center;" parent="S82zIa9q7b6sG49SLkV_-1" vertex="1">
          <mxGeometry x="400" y="80" width="100" height="700" as="geometry" />
        </mxCell>
        <mxCell id="S82zIa9q7b6sG49SLkV_-5" value="" style="html=1;points=[];perimeter=orthogonalPerimeter;rounded=0;shadow=0;comic=0;labelBackgroundColor=none;strokeWidth=1;fontFamily=Verdana;fontSize=12;align=center;" parent="S82zIa9q7b6sG49SLkV_-4" vertex="1">
          <mxGeometry x="45" y="120" width="10" height="170" as="geometry" />
        </mxCell>
        <mxCell id="S82zIa9q7b6sG49SLkV_-6" value="Plateau" style="shape=umlLifeline;perimeter=lifelinePerimeter;whiteSpace=wrap;html=1;container=1;collapsible=0;recursiveResize=0;outlineConnect=0;rounded=1;shadow=0;comic=0;labelBackgroundColor=none;strokeWidth=1;fontFamily=Verdana;fontSize=12;align=center;" parent="S82zIa9q7b6sG49SLkV_-1" vertex="1">
          <mxGeometry x="540" y="80" width="100" height="700" as="geometry" />
        </mxCell>
        <mxCell id="S82zIa9q7b6sG49SLkV_-7" value="Vaisseau" style="shape=umlLifeline;perimeter=lifelinePerimeter;whiteSpace=wrap;html=1;container=1;collapsible=0;recursiveResize=0;outlineConnect=0;rounded=1;shadow=0;comic=0;labelBackgroundColor=none;strokeWidth=1;fontFamily=Verdana;fontSize=12;align=center;" parent="S82zIa9q7b6sG49SLkV_-1" vertex="1">
          <mxGeometry x="680" y="80" width="100" height="690" as="geometry" />
        </mxCell>
        <mxCell id="S82zIa9q7b6sG49SLkV_-8" value="Secteur" style="shape=umlLifeline;perimeter=lifelinePerimeter;whiteSpace=wrap;html=1;container=1;collapsible=0;recursiveResize=0;outlineConnect=0;rounded=1;shadow=0;comic=0;labelBackgroundColor=none;strokeWidth=1;fontFamily=Verdana;fontSize=12;align=center;" parent="S82zIa9q7b6sG49SLkV_-1" vertex="1">
          <mxGeometry x="820" y="80" width="100" height="690" as="geometry" />
        </mxCell>
        <mxCell id="S82zIa9q7b6sG49SLkV_-9" value="" style="html=1;points=[];perimeter=orthogonalPerimeter;rounded=0;shadow=0;comic=0;labelBackgroundColor=none;strokeWidth=1;fontFamily=Verdana;fontSize=12;align=center;" parent="S82zIa9q7b6sG49SLkV_-8" vertex="1">
          <mxGeometry x="45" y="270" width="10" height="30" as="geometry" />
        </mxCell>
        <mxCell id="S82zIa9q7b6sG49SLkV_-10" value="vérifierPrésenceEnnemis()" style="html=1;verticalAlign=bottom;endArrow=block;labelBackgroundColor=none;fontFamily=Verdana;fontSize=12;edgeStyle=elbowEdgeStyle;elbow=vertical;" parent="S82zIa9q7b6sG49SLkV_-8" edge="1">
          <mxGeometry relative="1" as="geometry">
            <mxPoint x="-360" y="273" as="sourcePoint" />
            <Array as="points" />
            <mxPoint x="45" y="273" as="targetPoint" />
            <mxPoint as="offset" />
          </mxGeometry>
        </mxCell>
        <mxCell id="S82zIa9q7b6sG49SLkV_-11" value="Jeu" style="shape=umlLifeline;perimeter=lifelinePerimeter;whiteSpace=wrap;html=1;container=1;collapsible=0;recursiveResize=0;outlineConnect=0;rounded=1;shadow=0;comic=0;labelBackgroundColor=none;strokeWidth=1;fontFamily=Verdana;fontSize=12;align=center;" parent="S82zIa9q7b6sG49SLkV_-1" vertex="1">
          <mxGeometry x="100" y="80" width="100" height="710" as="geometry" />
        </mxCell>
        <mxCell id="S82zIa9q7b6sG49SLkV_-12" value="" style="html=1;points=[];perimeter=orthogonalPerimeter;rounded=0;shadow=0;comic=0;labelBackgroundColor=none;strokeWidth=1;fontFamily=Verdana;fontSize=12;align=center;" parent="S82zIa9q7b6sG49SLkV_-11" vertex="1">
          <mxGeometry x="45" y="100" width="10" height="590" as="geometry" />
        </mxCell>
        <mxCell id="S82zIa9q7b6sG49SLkV_-13" value="finTour()" style="html=1;verticalAlign=bottom;endArrow=block;labelBackgroundColor=none;fontFamily=Verdana;fontSize=12;entryX=-0.3;entryY=0.983;entryDx=0;entryDy=0;entryPerimeter=0;" parent="S82zIa9q7b6sG49SLkV_-11" edge="1">
          <mxGeometry relative="1" as="geometry">
            <mxPoint x="55" y="650.03" as="sourcePoint" />
            <mxPoint x="182" y="650" as="targetPoint" />
          </mxGeometry>
        </mxCell>
        <mxCell id="S82zIa9q7b6sG49SLkV_-14" value="demarrerTour()" style="html=1;verticalAlign=bottom;endArrow=block;entryX=0;entryY=0;labelBackgroundColor=none;fontFamily=Verdana;fontSize=12;edgeStyle=elbowEdgeStyle;elbow=vertical;" parent="S82zIa9q7b6sG49SLkV_-1" source="S82zIa9q7b6sG49SLkV_-12" target="S82zIa9q7b6sG49SLkV_-3" edge="1">
          <mxGeometry relative="1" as="geometry">
            <mxPoint x="220" y="190" as="sourcePoint" />
          </mxGeometry>
        </mxCell>
        <mxCell id="S82zIa9q7b6sG49SLkV_-15" value="sélectionnerCommande()" style="html=1;verticalAlign=bottom;endArrow=block;entryX=0;entryY=0;labelBackgroundColor=none;fontFamily=Verdana;fontSize=12;edgeStyle=elbowEdgeStyle;elbow=vertical;" parent="S82zIa9q7b6sG49SLkV_-1" source="S82zIa9q7b6sG49SLkV_-3" target="S82zIa9q7b6sG49SLkV_-5" edge="1">
          <mxGeometry relative="1" as="geometry">
            <mxPoint x="370" y="200" as="sourcePoint" />
          </mxGeometry>
        </mxCell>
        <mxCell id="S82zIa9q7b6sG49SLkV_-16" value="CommandeExtermination" style="shape=note;whiteSpace=wrap;html=1;size=14;verticalAlign=top;align=left;spacingTop=-6;rounded=0;shadow=0;comic=0;labelBackgroundColor=none;strokeWidth=1;fontFamily=Verdana;fontSize=12" parent="S82zIa9q7b6sG49SLkV_-1" vertex="1">
          <mxGeometry x="100" y="30" width="100" height="35" as="geometry" />
        </mxCell>
        <mxCell id="S82zIa9q7b6sG49SLkV_-22" value="executer()" style="html=1;verticalAlign=bottom;endArrow=block;entryX=0;entryY=0;labelBackgroundColor=none;fontFamily=Verdana;fontSize=12;edgeStyle=elbowEdgeStyle;elbow=vertical;" parent="S82zIa9q7b6sG49SLkV_-1" edge="1">
          <mxGeometry relative="1" as="geometry">
            <mxPoint x="295" y="243" as="sourcePoint" />
            <mxPoint x="445" y="243" as="targetPoint" />
          </mxGeometry>
        </mxCell>
        <mxCell id="S82zIa9q7b6sG49SLkV_-23" value="" style="endArrow=classic;html=1;rounded=0;" parent="S82zIa9q7b6sG49SLkV_-1" edge="1">
          <mxGeometry width="50" height="50" relative="1" as="geometry">
            <mxPoint x="445.5" y="288" as="sourcePoint" />
            <mxPoint x="296" y="288" as="targetPoint" />
          </mxGeometry>
        </mxCell>
        <mxCell id="S82zIa9q7b6sG49SLkV_-24" value="&lt;span style=&quot;color: rgb(0, 0, 0); font-family: Verdana; font-size: 12px; font-style: normal; font-variant-ligatures: normal; font-variant-caps: normal; font-weight: 400; letter-spacing: normal; orphans: 2; text-align: center; text-indent: 0px; text-transform: none; widows: 2; word-spacing: 0px; -webkit-text-stroke-width: 0px; white-space: nowrap; background-color: rgb(251, 251, 251); text-decoration-thickness: initial; text-decoration-style: initial; text-decoration-color: initial; display: inline !important; float: none;&quot;&gt;selectionnerVaisseauEtSecteur()&lt;/span&gt;" style="text;whiteSpace=wrap;html=1;" parent="S82zIa9q7b6sG49SLkV_-1" vertex="1">
          <mxGeometry x="314" y="265" width="198" height="40" as="geometry" />
        </mxCell>
        <mxCell id="S82zIa9q7b6sG49SLkV_-27" value="retourVaisseauEtSecteur()" style="html=1;verticalAlign=bottom;endArrow=block;labelBackgroundColor=none;fontFamily=Verdana;fontSize=12;edgeStyle=elbowEdgeStyle;elbow=vertical;" parent="S82zIa9q7b6sG49SLkV_-1" target="S82zIa9q7b6sG49SLkV_-4" edge="1">
          <mxGeometry relative="1" as="geometry">
            <mxPoint x="295" y="326" as="sourcePoint" />
            <Array as="points">
              <mxPoint x="300" y="326" />
            </Array>
            <mxPoint x="425" y="326" as="targetPoint" />
            <mxPoint as="offset" />
          </mxGeometry>
        </mxCell>
        <mxCell id="S82zIa9q7b6sG49SLkV_-28" value="" style="swimlane;startSize=0;" parent="S82zIa9q7b6sG49SLkV_-1" vertex="1">
          <mxGeometry x="210" y="400" width="850" height="290" as="geometry" />
        </mxCell>
        <mxCell id="S82zIa9q7b6sG49SLkV_-29" value="" style="rounded=0;whiteSpace=wrap;html=1;" parent="S82zIa9q7b6sG49SLkV_-28" vertex="1">
          <mxGeometry width="60" height="30" as="geometry" />
        </mxCell>
        <mxCell id="S82zIa9q7b6sG49SLkV_-30" value="Alt" style="text;html=1;align=center;verticalAlign=middle;whiteSpace=wrap;rounded=0;" parent="S82zIa9q7b6sG49SLkV_-28" vertex="1">
          <mxGeometry width="60" height="30" as="geometry" />
        </mxCell>
        <mxCell id="S82zIa9q7b6sG49SLkV_-31" value="[Ennemis Presents] (ennemis == true)" style="text;html=1;align=center;verticalAlign=middle;whiteSpace=wrap;rounded=0;" parent="S82zIa9q7b6sG49SLkV_-28" vertex="1">
          <mxGeometry x="262" width="230" height="30" as="geometry" />
        </mxCell>
        <mxCell id="S82zIa9q7b6sG49SLkV_-32" value="" style="html=1;points=[];perimeter=orthogonalPerimeter;rounded=0;shadow=0;comic=0;labelBackgroundColor=none;strokeWidth=1;fontFamily=Verdana;fontSize=12;align=center;" parent="S82zIa9q7b6sG49SLkV_-28" vertex="1">
          <mxGeometry x="515" y="30" width="10" height="90" as="geometry" />
        </mxCell>
        <mxCell id="S82zIa9q7b6sG49SLkV_-33" value="&lt;span style=&quot;color: rgb(0, 0, 0); font-family: Verdana; font-size: 12px; font-style: normal; font-variant-ligatures: normal; font-variant-caps: normal; font-weight: 400; letter-spacing: normal; orphans: 2; text-align: center; text-indent: 0px; text-transform: none; widows: 2; word-spacing: 0px; -webkit-text-stroke-width: 0px; white-space: nowrap; background-color: rgb(251, 251, 251); text-decoration-thickness: initial; text-decoration-style: initial; text-decoration-color: initial; display: inline !important; float: none;&quot;&gt;engagerCombat(ennemi)&lt;/span&gt;" style="text;whiteSpace=wrap;html=1;" parent="S82zIa9q7b6sG49SLkV_-28" vertex="1">
          <mxGeometry x="292" y="35" width="170" height="40" as="geometry" />
        </mxCell>
        <mxCell id="S82zIa9q7b6sG49SLkV_-34" value="" style="endArrow=classic;html=1;rounded=0;entryX=0;entryY=0.322;entryDx=0;entryDy=0;entryPerimeter=0;" parent="S82zIa9q7b6sG49SLkV_-28" target="S82zIa9q7b6sG49SLkV_-32" edge="1">
          <mxGeometry width="50" height="50" relative="1" as="geometry">
            <mxPoint x="245" y="60" as="sourcePoint" />
            <mxPoint x="374.5" y="60" as="targetPoint" />
          </mxGeometry>
        </mxCell>
        <mxCell id="S82zIa9q7b6sG49SLkV_-35" value="" style="html=1;points=[];perimeter=orthogonalPerimeter;rounded=0;shadow=0;comic=0;labelBackgroundColor=none;strokeWidth=1;fontFamily=Verdana;fontSize=12;align=center;" parent="S82zIa9q7b6sG49SLkV_-28" vertex="1">
          <mxGeometry x="235" y="40" width="10" height="60" as="geometry" />
        </mxCell>
        <mxCell id="S82zIa9q7b6sG49SLkV_-37" value="" style="endArrow=classic;html=1;rounded=0;" parent="S82zIa9q7b6sG49SLkV_-28" edge="1">
          <mxGeometry width="50" height="50" relative="1" as="geometry">
            <mxPoint x="525" y="75" as="sourcePoint" />
            <mxPoint x="794.5" y="75" as="targetPoint" />
          </mxGeometry>
        </mxCell>
        <mxCell id="S82zIa9q7b6sG49SLkV_-39" value="[Pas d&#39;ennemis] (ennemis == false)" style="text;html=1;align=center;verticalAlign=middle;whiteSpace=wrap;rounded=0;" parent="S82zIa9q7b6sG49SLkV_-28" vertex="1">
          <mxGeometry x="262" y="140" width="230" height="30" as="geometry" />
        </mxCell>
        <mxCell id="S82zIa9q7b6sG49SLkV_-40" value="" style="html=1;points=[];perimeter=orthogonalPerimeter;rounded=0;shadow=0;comic=0;labelBackgroundColor=none;strokeWidth=1;fontFamily=Verdana;fontSize=12;align=center;" parent="S82zIa9q7b6sG49SLkV_-28" vertex="1">
          <mxGeometry x="235" y="180" width="10" height="90" as="geometry" />
        </mxCell>
        <mxCell id="S82zIa9q7b6sG49SLkV_-41" value="" style="endArrow=none;html=1;rounded=0;exitX=0;exitY=0.398;exitDx=0;exitDy=0;exitPerimeter=0;entryX=0.998;entryY=0.476;entryDx=0;entryDy=0;entryPerimeter=0;" parent="S82zIa9q7b6sG49SLkV_-28" target="S82zIa9q7b6sG49SLkV_-28" edge="1">
          <mxGeometry width="50" height="50" relative="1" as="geometry">
            <mxPoint y="139.9999999999999" as="sourcePoint" />
            <mxPoint x="740.7399999999998" y="140.65999999999997" as="targetPoint" />
          </mxGeometry>
        </mxCell>
        <mxCell id="S82zIa9q7b6sG49SLkV_-42" value="&lt;span style=&quot;color: rgb(0, 0, 0); font-family: Verdana; font-size: 12px; font-style: normal; font-variant-ligatures: normal; font-variant-caps: normal; font-weight: 400; letter-spacing: normal; orphans: 2; text-align: center; text-indent: 0px; text-transform: none; widows: 2; word-spacing: 0px; -webkit-text-stroke-width: 0px; white-space: nowrap; background-color: rgb(251, 251, 251); text-decoration-thickness: initial; text-decoration-style: initial; text-decoration-color: initial; display: inline !important; float: none;&quot;&gt;informerPasEnnemis()&lt;/span&gt;" style="text;whiteSpace=wrap;html=1;" parent="S82zIa9q7b6sG49SLkV_-28" vertex="1">
          <mxGeometry x="100" y="190" width="160" height="40" as="geometry" />
        </mxCell>
        <mxCell id="S82zIa9q7b6sG49SLkV_-43" value="" style="endArrow=classic;html=1;rounded=0;" parent="S82zIa9q7b6sG49SLkV_-28" edge="1">
          <mxGeometry width="50" height="50" relative="1" as="geometry">
            <mxPoint x="240" y="215" as="sourcePoint" />
            <mxPoint x="85" y="215" as="targetPoint" />
          </mxGeometry>
        </mxCell>
        <mxCell id="RptiqadJXCyJgK9pNmQo-3" value="" style="html=1;points=[];perimeter=orthogonalPerimeter;rounded=0;shadow=0;comic=0;labelBackgroundColor=none;strokeWidth=1;fontFamily=Verdana;fontSize=12;align=center;" parent="S82zIa9q7b6sG49SLkV_-28" vertex="1">
          <mxGeometry x="655" y="99" width="10" height="30" as="geometry" />
        </mxCell>
        <mxCell id="RptiqadJXCyJgK9pNmQo-4" value="" style="endArrow=classic;html=1;rounded=0;entryX=-0.1;entryY=0.4;entryDx=0;entryDy=0;entryPerimeter=0;" parent="S82zIa9q7b6sG49SLkV_-28" target="RptiqadJXCyJgK9pNmQo-3" edge="1">
          <mxGeometry width="50" height="50" relative="1" as="geometry">
            <mxPoint x="525" y="110" as="sourcePoint" />
            <mxPoint x="795" y="110" as="targetPoint" />
          </mxGeometry>
        </mxCell>
        <mxCell id="RptiqadJXCyJgK9pNmQo-5" value="&lt;span style=&quot;color: rgb(0, 0, 0); font-family: Verdana; font-size: 12px; font-style: normal; font-variant-ligatures: normal; font-variant-caps: normal; font-weight: 400; letter-spacing: normal; orphans: 2; text-align: center; text-indent: 0px; text-transform: none; widows: 2; word-spacing: 0px; -webkit-text-stroke-width: 0px; white-space: nowrap; background-color: rgb(251, 251, 251); text-decoration-thickness: initial; text-decoration-style: initial; text-decoration-color: initial; display: inline !important; float: none;&quot;&gt;occuper(secteur, joueur)&lt;/span&gt;" style="text;whiteSpace=wrap;html=1;" parent="S82zIa9q7b6sG49SLkV_-28" vertex="1">
          <mxGeometry x="534" y="84" width="160" height="40" as="geometry" />
        </mxCell>
        <mxCell id="RptiqadJXCyJgK9pNmQo-0" value="VaisseauEnnemi" style="shape=umlLifeline;perimeter=lifelinePerimeter;whiteSpace=wrap;html=1;container=1;collapsible=0;recursiveResize=0;outlineConnect=0;rounded=1;shadow=0;comic=0;labelBackgroundColor=none;strokeWidth=1;fontFamily=Verdana;fontSize=12;align=center;" parent="S82zIa9q7b6sG49SLkV_-1" vertex="1">
          <mxGeometry x="960" y="80" width="100" height="690" as="geometry" />
        </mxCell>
        <mxCell id="RptiqadJXCyJgK9pNmQo-1" value="" style="html=1;points=[];perimeter=orthogonalPerimeter;rounded=0;shadow=0;comic=0;labelBackgroundColor=none;strokeWidth=1;fontFamily=Verdana;fontSize=12;align=center;" parent="RptiqadJXCyJgK9pNmQo-0" vertex="1">
          <mxGeometry x="45" y="380" width="10" height="40" as="geometry" />
        </mxCell>
        <mxCell id="S82zIa9q7b6sG49SLkV_-38" value="&lt;span style=&quot;color: rgb(0, 0, 0); font-family: Verdana; font-size: 12px; font-style: normal; font-variant-ligatures: normal; font-variant-caps: normal; font-weight: 400; letter-spacing: normal; orphans: 2; text-align: center; text-indent: 0px; text-transform: none; widows: 2; word-spacing: 0px; -webkit-text-stroke-width: 0px; white-space: nowrap; background-color: rgb(251, 251, 251); text-decoration-thickness: initial; text-decoration-style: initial; text-decoration-color: initial; display: inline !important; float: none;&quot;&gt;eleminer()&lt;/span&gt;" style="text;whiteSpace=wrap;html=1;" parent="RptiqadJXCyJgK9pNmQo-0" vertex="1">
          <mxGeometry x="-30" y="370" width="70" height="40" as="geometry" />
        </mxCell>
      </root>
    </mxGraphModel>
  </diagram>
  <diagram id="GOBYNszB1U3yTuLzqTjS" name="Page-4">
    <mxGraphModel dx="890" dy="966" grid="1" gridSize="10" guides="1" tooltips="1" connect="1" arrows="1" fold="1" page="1" pageScale="1" pageWidth="827" pageHeight="1169" math="0" shadow="0">
      <root>
        <mxCell id="0" />
        <mxCell id="1" parent="0" />
        <mxCell id="cmcfjugnxGahEfA-Cg5z-1" value="Joueur" style="shape=umlLifeline;perimeter=lifelinePerimeter;whiteSpace=wrap;html=1;container=1;collapsible=0;recursiveResize=0;outlineConnect=0;rounded=1;shadow=0;comic=0;labelBackgroundColor=none;strokeWidth=1;fontFamily=Verdana;fontSize=12;align=center;" vertex="1" parent="1">
          <mxGeometry x="584" y="80" width="100" height="840" as="geometry" />
        </mxCell>
        <mxCell id="cmcfjugnxGahEfA-Cg5z-30" value="startJeu()" style="text;html=1;align=center;verticalAlign=middle;whiteSpace=wrap;rounded=0;" vertex="1" parent="cmcfjugnxGahEfA-Cg5z-1">
          <mxGeometry x="-15" y="90" width="60" height="30" as="geometry" />
        </mxCell>
        <mxCell id="cmcfjugnxGahEfA-Cg5z-62" value="" style="endArrow=classic;html=1;rounded=0;" edge="1" parent="cmcfjugnxGahEfA-Cg5z-1" target="cmcfjugnxGahEfA-Cg5z-11">
          <mxGeometry width="50" height="50" relative="1" as="geometry">
            <mxPoint x="48.5" y="440" as="sourcePoint" />
            <mxPoint x="-15" y="440" as="targetPoint" />
          </mxGeometry>
        </mxCell>
        <mxCell id="cmcfjugnxGahEfA-Cg5z-63" value="roundTermine()" style="text;html=1;align=right;verticalAlign=middle;resizable=0;points=[];autosize=1;strokeColor=none;fillColor=none;" vertex="1" parent="cmcfjugnxGahEfA-Cg5z-1">
          <mxGeometry x="-65" y="410" width="110" height="30" as="geometry" />
        </mxCell>
        <mxCell id="cmcfjugnxGahEfA-Cg5z-86" value="nextRound()" style="text;html=1;align=center;verticalAlign=middle;resizable=0;points=[];autosize=1;strokeColor=none;fillColor=none;" vertex="1" parent="cmcfjugnxGahEfA-Cg5z-1">
          <mxGeometry x="-45" y="730" width="90" height="30" as="geometry" />
        </mxCell>
        <mxCell id="cmcfjugnxGahEfA-Cg5z-3" value="Plateau" style="shape=umlLifeline;perimeter=lifelinePerimeter;whiteSpace=wrap;html=1;container=1;collapsible=0;recursiveResize=0;outlineConnect=0;rounded=1;shadow=0;comic=0;labelBackgroundColor=none;strokeWidth=1;fontFamily=Verdana;fontSize=12;align=center;" vertex="1" parent="1">
          <mxGeometry x="700" y="80" width="124" height="580" as="geometry" />
        </mxCell>
        <mxCell id="cmcfjugnxGahEfA-Cg5z-6" value="Commande" style="shape=umlLifeline;perimeter=lifelinePerimeter;whiteSpace=wrap;html=1;container=1;collapsible=0;recursiveResize=0;outlineConnect=0;rounded=1;shadow=0;comic=0;labelBackgroundColor=none;strokeWidth=1;fontFamily=Verdana;fontSize=12;align=center;" vertex="1" parent="1">
          <mxGeometry x="840" y="80" width="120" height="580" as="geometry" />
        </mxCell>
        <mxCell id="cmcfjugnxGahEfA-Cg5z-42" value="" style="endArrow=classic;html=1;rounded=0;" edge="1" parent="cmcfjugnxGahEfA-Cg5z-6" target="cmcfjugnxGahEfA-Cg5z-8">
          <mxGeometry width="50" height="50" relative="1" as="geometry">
            <mxPoint x="-205.49619047619058" y="240" as="sourcePoint" />
            <mxPoint x="185" y="240" as="targetPoint" />
            <Array as="points">
              <mxPoint x="25.5" y="240" />
            </Array>
          </mxGeometry>
        </mxCell>
        <mxCell id="cmcfjugnxGahEfA-Cg5z-8" value="Strategie" style="shape=umlLifeline;perimeter=lifelinePerimeter;whiteSpace=wrap;html=1;container=1;collapsible=0;recursiveResize=0;outlineConnect=0;rounded=1;shadow=0;comic=0;labelBackgroundColor=none;strokeWidth=1;fontFamily=Verdana;fontSize=12;align=center;" vertex="1" parent="1">
          <mxGeometry x="980" y="80" width="100" height="580" as="geometry" />
        </mxCell>
        <mxCell id="cmcfjugnxGahEfA-Cg5z-57" value="" style="endArrow=classic;html=1;rounded=0;" edge="1" parent="cmcfjugnxGahEfA-Cg5z-8" source="cmcfjugnxGahEfA-Cg5z-8">
          <mxGeometry width="50" height="50" relative="1" as="geometry">
            <mxPoint x="59.69" y="360" as="sourcePoint" />
            <mxPoint x="-79.99965517241372" y="360" as="targetPoint" />
          </mxGeometry>
        </mxCell>
        <mxCell id="cmcfjugnxGahEfA-Cg5z-58" value="&lt;div align=&quot;right&quot;&gt;execute()&lt;/div&gt;" style="text;html=1;align=right;verticalAlign=middle;resizable=0;points=[];autosize=1;strokeColor=none;fillColor=none;" vertex="1" parent="cmcfjugnxGahEfA-Cg5z-8">
          <mxGeometry x="-20" y="330" width="70" height="30" as="geometry" />
        </mxCell>
        <mxCell id="cmcfjugnxGahEfA-Cg5z-60" value="" style="endArrow=classic;html=1;rounded=0;" edge="1" parent="cmcfjugnxGahEfA-Cg5z-8" target="cmcfjugnxGahEfA-Cg5z-3">
          <mxGeometry width="50" height="50" relative="1" as="geometry">
            <mxPoint x="50" y="400" as="sourcePoint" />
            <mxPoint x="-129.5" y="400" as="targetPoint" />
          </mxGeometry>
        </mxCell>
        <mxCell id="cmcfjugnxGahEfA-Cg5z-61" value="&lt;div align=&quot;right&quot;&gt;updatePlateau()&lt;/div&gt;" style="text;html=1;align=right;verticalAlign=middle;resizable=0;points=[];autosize=1;strokeColor=none;fillColor=none;" vertex="1" parent="cmcfjugnxGahEfA-Cg5z-8">
          <mxGeometry x="-60" y="370" width="110" height="30" as="geometry" />
        </mxCell>
        <mxCell id="cmcfjugnxGahEfA-Cg5z-11" value="Jeu" style="shape=umlLifeline;perimeter=lifelinePerimeter;whiteSpace=wrap;html=1;container=1;collapsible=0;recursiveResize=0;outlineConnect=0;rounded=1;shadow=0;comic=0;labelBackgroundColor=none;strokeWidth=1;fontFamily=Verdana;fontSize=12;align=center;" vertex="1" parent="1">
          <mxGeometry x="50" y="80" width="340" height="840" as="geometry" />
        </mxCell>
        <mxCell id="cmcfjugnxGahEfA-Cg5z-37" value="&lt;div align=&quot;left&quot;&gt;intPlateau()&lt;/div&gt;" style="text;html=1;align=left;verticalAlign=middle;whiteSpace=wrap;rounded=0;" vertex="1" parent="cmcfjugnxGahEfA-Cg5z-11">
          <mxGeometry x="140" y="130" width="60" height="30" as="geometry" />
        </mxCell>
        <mxCell id="cmcfjugnxGahEfA-Cg5z-14" value="&lt;div align=&quot;left&quot;&gt;ajouteJoueur()&lt;/div&gt;" style="text;html=1;align=left;verticalAlign=middle;whiteSpace=wrap;rounded=0;" vertex="1" parent="cmcfjugnxGahEfA-Cg5z-11">
          <mxGeometry x="140" y="50" width="60" height="30" as="geometry" />
        </mxCell>
        <mxCell id="cmcfjugnxGahEfA-Cg5z-72" value="&lt;div align=&quot;left&quot;&gt;checkRound()&lt;/div&gt;" style="text;html=1;align=left;verticalAlign=middle;whiteSpace=wrap;rounded=0;" vertex="1" parent="cmcfjugnxGahEfA-Cg5z-11">
          <mxGeometry x="170" y="490" width="60" height="30" as="geometry" />
        </mxCell>
        <mxCell id="cmcfjugnxGahEfA-Cg5z-73" value="" style="endArrow=classic;html=1;rounded=0;exitX=0.5;exitY=1;exitDx=0;exitDy=0;" edge="1" parent="cmcfjugnxGahEfA-Cg5z-11" source="cmcfjugnxGahEfA-Cg5z-72">
          <mxGeometry width="50" height="50" relative="1" as="geometry">
            <mxPoint x="197.39393939393938" y="520" as="sourcePoint" />
            <mxPoint x="170" y="531" as="targetPoint" />
            <Array as="points">
              <mxPoint x="230" y="520" />
              <mxPoint x="230" y="531" />
            </Array>
          </mxGeometry>
        </mxCell>
        <mxCell id="cmcfjugnxGahEfA-Cg5z-75" value="compterVaisseau()" style="text;html=1;align=center;verticalAlign=middle;resizable=0;points=[];autosize=1;strokeColor=none;fillColor=none;" vertex="1" parent="cmcfjugnxGahEfA-Cg5z-11">
          <mxGeometry x="160" y="570" width="130" height="30" as="geometry" />
        </mxCell>
        <mxCell id="cmcfjugnxGahEfA-Cg5z-77" value="declarerGagnant(Joueur joueur)" style="text;html=1;align=center;verticalAlign=middle;resizable=0;points=[];autosize=1;strokeColor=none;fillColor=none;" vertex="1" parent="cmcfjugnxGahEfA-Cg5z-11">
          <mxGeometry x="160" y="610" width="200" height="30" as="geometry" />
        </mxCell>
        <mxCell id="cmcfjugnxGahEfA-Cg5z-81" value="notifierJoueur(&quot;Jeu termine&quot;)" style="text;html=1;align=center;verticalAlign=middle;resizable=0;points=[];autosize=1;strokeColor=none;fillColor=none;" vertex="1" parent="cmcfjugnxGahEfA-Cg5z-11">
          <mxGeometry x="160" y="648" width="180" height="30" as="geometry" />
        </mxCell>
        <mxCell id="cmcfjugnxGahEfA-Cg5z-19" value="DS Jeu" style="shape=note;whiteSpace=wrap;html=1;size=14;verticalAlign=top;align=left;spacingTop=-6;rounded=0;shadow=0;comic=0;labelBackgroundColor=none;strokeWidth=1;fontFamily=Verdana;fontSize=12" vertex="1" parent="1">
          <mxGeometry x="100" y="30" width="100" height="35" as="geometry" />
        </mxCell>
        <mxCell id="cmcfjugnxGahEfA-Cg5z-29" value="" style="endArrow=classic;html=1;rounded=0;" edge="1" parent="1">
          <mxGeometry width="50" height="50" relative="1" as="geometry">
            <mxPoint x="633.5" y="200" as="sourcePoint" />
            <mxPoint x="219.81034482758605" y="200" as="targetPoint" />
          </mxGeometry>
        </mxCell>
        <mxCell id="cmcfjugnxGahEfA-Cg5z-36" value="" style="endArrow=classic;html=1;rounded=0;" edge="1" parent="1" source="cmcfjugnxGahEfA-Cg5z-11">
          <mxGeometry width="50" height="50" relative="1" as="geometry">
            <mxPoint x="225.0000000000001" y="239.99999999999991" as="sourcePoint" />
            <mxPoint x="760" y="240" as="targetPoint" />
            <Array as="points">
              <mxPoint x="229.37" y="240.15" />
              <mxPoint x="379.37" y="240.15" />
            </Array>
          </mxGeometry>
        </mxCell>
        <mxCell id="cmcfjugnxGahEfA-Cg5z-39" value="" style="endArrow=classic;html=1;rounded=0;exitX=1.183;exitY=0.176;exitDx=0;exitDy=0;exitPerimeter=0;" edge="1" parent="1" target="cmcfjugnxGahEfA-Cg5z-1">
          <mxGeometry width="50" height="50" relative="1" as="geometry">
            <mxPoint x="220.00000000000003" y="279.99999999999994" as="sourcePoint" />
            <mxPoint x="628.5" y="280" as="targetPoint" />
          </mxGeometry>
        </mxCell>
        <mxCell id="cmcfjugnxGahEfA-Cg5z-44" value="" style="endArrow=classic;html=1;rounded=0;" edge="1" parent="1" target="cmcfjugnxGahEfA-Cg5z-1">
          <mxGeometry width="50" height="50" relative="1" as="geometry">
            <mxPoint x="220" y="360" as="sourcePoint" />
            <mxPoint x="623.5" y="360" as="targetPoint" />
            <Array as="points">
              <mxPoint x="392" y="360" />
            </Array>
          </mxGeometry>
        </mxCell>
        <mxCell id="cmcfjugnxGahEfA-Cg5z-51" value="&lt;div align=&quot;left&quot;&gt;notifJoueur(&#39;Round x&#39;)&lt;/div&gt;" style="text;html=1;align=left;verticalAlign=middle;whiteSpace=wrap;rounded=0;" vertex="1" parent="1">
          <mxGeometry x="230" y="330" width="170" height="30" as="geometry" />
        </mxCell>
        <mxCell id="cmcfjugnxGahEfA-Cg5z-40" value="notifJoueur(&#39;Jeu commence&#39;)" style="text;html=1;align=center;verticalAlign=middle;whiteSpace=wrap;rounded=0;" vertex="1" parent="1">
          <mxGeometry x="225" y="250" width="170" height="30" as="geometry" />
        </mxCell>
        <mxCell id="cmcfjugnxGahEfA-Cg5z-43" value="&lt;div align=&quot;left&quot;&gt;setStrategie(Strategie strategie)&lt;/div&gt;" style="text;html=1;align=left;verticalAlign=middle;resizable=0;points=[];autosize=1;strokeColor=none;fillColor=none;" vertex="1" parent="1">
          <mxGeometry x="640" y="290" width="200" height="30" as="geometry" />
        </mxCell>
        <mxCell id="cmcfjugnxGahEfA-Cg5z-55" value="" style="endArrow=classic;html=1;rounded=0;" edge="1" parent="1" source="cmcfjugnxGahEfA-Cg5z-1" target="cmcfjugnxGahEfA-Cg5z-8">
          <mxGeometry width="50" height="50" relative="1" as="geometry">
            <mxPoint x="640" y="400" as="sourcePoint" />
            <mxPoint x="882.8299999999999" y="400.17999999999984" as="targetPoint" />
            <Array as="points">
              <mxPoint x="840" y="400" />
            </Array>
          </mxGeometry>
        </mxCell>
        <mxCell id="cmcfjugnxGahEfA-Cg5z-13" value="" style="endArrow=classic;html=1;rounded=0;" edge="1" parent="1" target="cmcfjugnxGahEfA-Cg5z-11" source="cmcfjugnxGahEfA-Cg5z-11">
          <mxGeometry width="50" height="50" relative="1" as="geometry">
            <mxPoint x="225.39999999999998" y="160.44999999999993" as="sourcePoint" />
            <mxPoint x="225.14999999999986" y="170.80000000000007" as="targetPoint" />
            <Array as="points">
              <mxPoint x="260" y="160" />
              <mxPoint x="260" y="171" />
            </Array>
          </mxGeometry>
        </mxCell>
        <mxCell id="cmcfjugnxGahEfA-Cg5z-56" value="effectueStrategie()" style="text;html=1;align=left;verticalAlign=middle;resizable=0;points=[];autosize=1;strokeColor=none;fillColor=none;" vertex="1" parent="1">
          <mxGeometry x="640" y="370" width="120" height="30" as="geometry" />
        </mxCell>
        <mxCell id="cmcfjugnxGahEfA-Cg5z-64" value="" style="endArrow=classic;html=1;rounded=0;" edge="1" parent="1" target="cmcfjugnxGahEfA-Cg5z-1">
          <mxGeometry width="50" height="50" relative="1" as="geometry">
            <mxPoint x="219.54761904761904" y="560" as="sourcePoint" />
            <mxPoint x="520" y="560" as="targetPoint" />
          </mxGeometry>
        </mxCell>
        <mxCell id="cmcfjugnxGahEfA-Cg5z-65" value="notifJoueur(&#39;Round x termine&#39;)" style="text;html=1;align=center;verticalAlign=middle;whiteSpace=wrap;rounded=0;" vertex="1" parent="1">
          <mxGeometry x="220" y="530" width="170" height="30" as="geometry" />
        </mxCell>
        <mxCell id="cmcfjugnxGahEfA-Cg5z-74" value="" style="endArrow=classic;html=1;rounded=0;" edge="1" parent="1" source="cmcfjugnxGahEfA-Cg5z-11" target="cmcfjugnxGahEfA-Cg5z-1">
          <mxGeometry width="50" height="50" relative="1" as="geometry">
            <mxPoint x="220.000909090909" y="640" as="sourcePoint" />
            <mxPoint x="510.41" y="640" as="targetPoint" />
            <Array as="points">
              <mxPoint x="430" y="680" />
            </Array>
          </mxGeometry>
        </mxCell>
        <mxCell id="cmcfjugnxGahEfA-Cg5z-79" value="" style="endArrow=classic;html=1;rounded=0;" edge="1" parent="1">
          <mxGeometry width="50" height="50" relative="1" as="geometry">
            <mxPoint x="220" y="760" as="sourcePoint" />
            <mxPoint x="634" y="760" as="targetPoint" />
            <Array as="points">
              <mxPoint x="430" y="760" />
            </Array>
          </mxGeometry>
        </mxCell>
        <mxCell id="cmcfjugnxGahEfA-Cg5z-82" value="" style="endArrow=classic;html=1;rounded=0;" edge="1" parent="1">
          <mxGeometry width="50" height="50" relative="1" as="geometry">
            <mxPoint x="220" y="720" as="sourcePoint" />
            <mxPoint x="634" y="720" as="targetPoint" />
            <Array as="points">
              <mxPoint x="430" y="720" />
            </Array>
          </mxGeometry>
        </mxCell>
        <mxCell id="cmcfjugnxGahEfA-Cg5z-85" value="" style="endArrow=classic;html=1;rounded=0;" edge="1" parent="1">
          <mxGeometry width="50" height="50" relative="1" as="geometry">
            <mxPoint x="635.5" y="840" as="sourcePoint" />
            <mxPoint x="220" y="840" as="targetPoint" />
          </mxGeometry>
        </mxCell>
      </root>
    </mxGraphModel>
  </diagram>
</mxfile>
